<svg xmlns="http://www.w3.org/2000/svg" viewBox="0 0 320 360" width="320" height="360" role="img" aria-label="ملاك لطيف يحمل دبدوبا ورديا">
  <title>ملاك فصل البيبي مع الدبدوب</title>
  <defs>
    <linearGradient id="robe" x1="0.5" y1="0" x2="0.5" y2="1">
      <stop offset="0" stop-color="#ffeaf3"/>
      <stop offset="1" stop-color="#f6b5d0"/>
    </linearGradient>
    <linearGradient id="wing" x1="0.5" y1="0" x2="0.5" y2="1">
      <stop offset="0" stop-color="#ffffff"/>
      <stop offset="1" stop-color="#f7dfe9"/>
    </linearGradient>
    <radialGradient id="glow" cx="0.5" cy="0.5" r="0.5">
      <stop offset="0" stop-color="#ffffff" stop-opacity="0.95"/>
      <stop offset="1" stop-color="#ffffff" stop-opacity="0"/>
    </radialGradient>
  </defs>
  <circle cx="160" cy="180" r="142" fill="url(#glow)"/>
  <ellipse cx="160" cy="70" rx="46" ry="12" fill="none" stroke="#f6cf6d" stroke-width="9"/>
  <path d="M120 170c-30-31-59-29-71-8-13 22 2 53 31 63 21 7 41-2 47-19z" fill="url(#wing)"/>
  <path d="M200 170c30-31 59-29 71-8 13 22-2 53-31 63-21 7-41-2-47-19z" fill="url(#wing)"/>
  <path d="M150 178c-8 12-12 26-12 41 0 14 4 25 10 33h24c6-8 10-19 10-33 0-15-4-29-12-41z" fill="#ffffff" opacity="0.5"/>
  <path d="M160 148c-29 0-51 16-57 43l-13 95c-1 9 6 16 15 16h110c9 0 16-7 15-16l-13-95c-6-27-28-43-57-43z" fill="url(#robe)"/>
  <path d="M160 148c-11 0-21 2-29 7l29 21 29-21c-8-5-18-7-29-7z" fill="#ffffff" opacity="0.6"/>
  <path d="M106 198c-15 11-23 28-20 46 1 9 11 14 19 11 9-4 13-13 12-22-1-14 3-25 12-32z" fill="#f6b5d0"/>
  <path d="M214 198c15 11 23 28 20 46-1 9-11 14-19 11-9-4-13-13-12-22 1-14-3-25-12-32z" fill="#f6b5d0"/>
  <circle cx="160" cy="112" r="37" fill="#ffe3d2"/>
  <path d="M123 106c2-23 18-36 37-36s35 13 37 36c-9-11-21-15-37-15s-28 4-37 15z" fill="#8a5a3b"/>
  <circle cx="147" cy="113" r="4.6" fill="#4a3b35"/>
  <circle cx="173" cy="113" r="4.6" fill="#4a3b35"/>
  <circle cx="148.6" cy="111.2" r="1.5" fill="#ffffff"/>
  <circle cx="174.6" cy="111.2" r="1.5" fill="#ffffff"/>
  <path d="M151 127c4 6 14 6 18 0" fill="none" stroke="#cf8f77" stroke-width="3.2" stroke-linecap="round"/>
  <circle cx="136" cy="123" r="6" fill="#f8a7bd" opacity="0.55"/>
  <circle cx="184" cy="123" r="6" fill="#f8a7bd" opacity="0.55"/>
  <ellipse cx="160" cy="238" rx="36" ry="31" fill="#c99a67"/>
  <ellipse cx="160" cy="252" rx="20" ry="16" fill="#f0d3ae"/>
  <circle cx="137" cy="176" r="12" fill="#d8a976"/>
  <circle cx="183" cy="176" r="12" fill="#d8a976"/>
  <circle cx="137" cy="176" r="6" fill="#f2b9c9"/>
  <circle cx="183" cy="176" r="6" fill="#f2b9c9"/>
  <circle cx="160" cy="196" r="27" fill="#d8a976"/>
  <ellipse cx="160" cy="204" rx="14" ry="11" fill="#f4dcbb"/>
  <ellipse cx="160" cy="199" rx="5.4" ry="4.2" fill="#5b4433"/>
  <path d="M153 208c3 4 11 4 14 0" fill="none" stroke="#5b4433" stroke-width="2.6" stroke-linecap="round"/>
  <circle cx="151" cy="190" r="3.4" fill="#4a3b35"/>
  <circle cx="169" cy="190" r="3.4" fill="#4a3b35"/>
  <circle cx="143" cy="262" r="13" fill="#c99a67"/>
  <circle cx="177" cy="262" r="13" fill="#c99a67"/>
  <circle cx="143" cy="262" r="6" fill="#f0d3ae"/>
  <circle cx="177" cy="262" r="6" fill="#f0d3ae"/>
  <path d="M146 216l14 9 14-9-14-9z" fill="#f2789f"/>
  <circle cx="160" cy="216" r="5" fill="#e75f8b"/>

  <path d="M63 84l4 10 10 4-10 4-4 10-4-10-10-4 10-4z" fill="#f6b5d0"/>
  <path d="M258 118l3 8 8 3-8 3-3 8-3-8-8-3 8-3z" fill="#f6b5d0"/>
  <circle cx="86" cy="196" r="5" fill="#f6b5d0" opacity="0.75"/>
  <circle cx="246" cy="232" r="4" fill="#f6b5d0" opacity="0.6"/>
</svg>
